<svg width="401" height="69" viewBox="0 0 401 69" fill="none" xmlns="http://www.w3.org/2000/svg">
<path d="M78.9948 52L66.7748 37.44H72.2868L84.5588 51.948V52H78.9948ZM47.3788 52V14.612H78.5788C79.7228 14.612 80.7628 14.9067 81.6988 15.496C82.6695 16.0507 83.4321 16.796 83.9868 17.732C84.5415 18.668 84.8188 19.708 84.8188 20.852V31.824C84.8188 32.968 84.5415 34.008 83.9868 34.944C83.4321 35.88 82.6695 36.6427 81.6988 37.232C80.7628 37.7867 79.7228 38.064 78.5788 38.064H51.5908V52H47.3788ZM53.6188 33.8H78.5788C79.1335 33.8 79.6015 33.6093 79.9828 33.228C80.3988 32.8467 80.6068 32.3787 80.6068 31.824V20.852C80.6068 20.2973 80.3988 19.8293 79.9828 19.448C79.6015 19.032 79.1335 18.824 78.5788 18.824H53.6188C53.0641 18.824 52.5788 19.032 52.1628 19.448C51.7815 19.8293 51.5908 20.2973 51.5908 20.852V31.824C51.5908 32.3787 51.7815 32.8467 52.1628 33.228C52.5788 33.6093 53.0641 33.8 53.6188 33.8ZM90.809 52V14.56H95.073V52H90.809ZM116.178 52V18.772H99.538V14.56H136.978V18.772H120.39V52H116.178ZM155.635 52V18.772H138.995V14.56H176.435V18.772H159.847V52H155.635ZM180.844 52V14.56H185.108V52H180.844Z" fill="#0066CC"/>
<path d="M219.85 40.168L216.418 47.032L212.882 54H205.186L225.986 12.4L239.87 40.168H232.07L225.986 27.948L219.85 40.168ZM243.302 47.084L246.786 54H239.038L235.606 47.084H243.302ZM281.482 25.192C282.574 27.688 283.094 30.34 283.094 33.2C283.094 36.06 282.574 38.712 281.482 41.208C280.338 43.756 278.882 45.94 277.01 47.864C275.138 49.736 272.902 51.244 270.354 52.336C267.858 53.428 265.154 54 262.294 54H248.462L255.378 47.032H262.294C264.218 47.032 266.038 46.668 267.702 45.992C269.366 45.264 270.874 44.276 272.122 42.976C273.37 41.676 274.358 40.22 275.086 38.556C275.814 36.84 276.178 35.072 276.178 33.2C276.178 31.328 275.814 29.56 275.086 27.844C274.358 26.18 273.37 24.724 272.07 23.424C270.822 22.176 269.314 21.136 267.65 20.408C265.986 19.732 264.166 19.368 262.294 19.368H255.378L248.462 12.4H262.294C265.154 12.4 267.806 12.972 270.354 14.064C272.85 15.156 275.086 16.664 276.958 18.536C278.882 20.46 280.338 22.644 281.482 25.192ZM287.584 22.072V12.4L308.436 33.2L329.236 12.4V54H322.372V29.144L308.436 43.028L287.584 22.072ZM349.313 19.264V47.032L342.397 54V12.4L349.313 19.264ZM382.523 12.4H389.439V53.896V53.948V54L354.859 22.904V12.4L382.523 37.308V12.4Z" fill="url(#paint0_linear_59_413)"/>
<path d="M7.99999 16H1.30874C0.614275 16.0193 0 16 0 16L18.8085 53.5C19.7652 54.3585 19.9594 54.3219 19.8087 53.5C19.3792 53.0014 19.4775 52.4593 20.3087 51C21.1421 48.2568 21.2304 45.8491 19.3087 43.5C18.2179 41.4696 18.9309 39.1826 20.8087 36L16.8087 28.5L14.8087 24.5L12.3087 20L11 17C10.5113 16.44 10.1886 16.2085 9.5 16H8.49999H7.99999Z" fill="url(#paint1_linear_59_413)"/>
<path d="M35.0499 16C37.259 16.0001 39.0499 17.7909 39.0499 20C39.0499 22.2091 37.259 23.9999 35.0499 24C34.4326 23.9998 33.8473 23.8593 33.3253 23.6094C33.1717 23.6936 33.0231 23.829 32.8556 24.0293L24.3585 37.0234C24.2884 37.1904 24.2277 37.3388 24.1808 37.4658C24.1334 37.5943 24.1021 37.6986 24.0929 37.7783C24.0836 37.8589 24.0992 37.9018 24.1232 37.9238C24.1491 37.9469 24.2032 37.9626 24.3087 37.9502C26.1442 37.5539 27.4171 37.1178 28.464 36.5029C29.5111 35.8877 30.3373 35.0906 31.2775 33.9678L33.3829 30.5957C33.1699 30.1068 33.0509 29.5674 33.0509 29C33.0509 26.791 34.8419 25.0002 37.0509 25C39.2598 25.0003 41.0509 26.791 41.0509 29C41.0509 31.0503 39.5076 32.7393 37.5197 32.9717C37.4592 32.9962 37.3972 33.0224 37.3341 33.0469L37.3175 33.0527L37.3009 33.0479C37.245 33.0305 37.1897 33.0136 37.1359 32.9971C37.1078 32.9977 37.0791 33 37.0509 33C36.4652 33 35.9087 32.8727 35.4073 32.6465C35.0274 32.6576 34.6939 32.7721 34.3507 33.0352L21.3575 53.5264L21.3536 53.5342L21.3468 53.5391C21.2338 53.6277 21.1427 53.6841 21.0509 53.6836C20.9811 53.6827 20.9171 53.6494 20.8507 53.5967L20.7823 53.5371C20.6426 53.4109 20.5857 53.2342 20.589 53.0195C20.5923 52.8061 20.6545 52.5492 20.7579 52.2539C20.9647 51.664 21.3415 50.8997 21.7677 49.9834C22.0917 48.9083 22.1755 48.1149 22.0753 47.3691C21.9748 46.6219 21.6899 45.9177 21.2706 45.0215V45.0205C20.4118 43.1273 20.087 42.2768 20.0157 41.6953C19.9798 41.4019 20.0082 41.1769 20.0626 40.9248C20.1173 40.6719 20.1968 40.3975 20.2667 39.9912L20.2677 39.9824L20.2726 39.9736L31.2726 21.9736H31.2736C31.3434 21.8631 31.3909 21.7685 31.42 21.6807C31.1831 21.1697 31.0499 20.6003 31.0499 20C31.0499 17.7912 32.8413 16.0006 35.0499 16ZM37.0001 27C35.8956 27 35.0001 27.8954 35.0001 29C35.0001 30.1046 35.8956 31 37.0001 31C38.1045 30.9998 39.0001 30.1045 39.0001 29C39.0001 27.8955 38.1045 27.0002 37.0001 27ZM35.0001 18C33.8956 18 33.0001 18.8954 33.0001 20C33.0001 21.1046 33.8956 22 35.0001 22C36.1045 21.9998 37.0001 21.1045 37.0001 20C37.0001 18.8955 36.1045 18.0002 35.0001 18Z" fill="url(#paint2_linear_59_413)"/>
<defs>
<linearGradient id="paint0_linear_59_413" x1="300" y1="7" x2="300" y2="69" gradientUnits="userSpaceOnUse">
<stop stop-color="#9E9E9E"/>
<stop offset="1" stop-color="#464646"/>
</linearGradient>
<linearGradient id="paint1_linear_59_413" x1="19.5" y1="54" x2="0.999996" y2="18" gradientUnits="userSpaceOnUse">
<stop stop-color="#0959B9"/>
<stop offset="1" stop-color="#1B74D1"/>
</linearGradient>
<linearGradient id="paint2_linear_59_413" x1="30.5247" y1="16" x2="30.5247" y2="53.6836" gradientUnits="userSpaceOnUse">
<stop stop-color="#9E9E9E"/>
<stop offset="1" stop-color="#464646"/>
</linearGradient>
</defs>
</svg>
